<mxfile host="app.diagrams.net" modified="2020-07-21T17:54:21.546Z" agent="5.0 (X11; Linux x86_64) AppleWebKit/537.36 (KHTML, like Gecko) Chrome/80.0.3987.149 Safari/537.36" etag="B3LDQlZi78EzXvm5WpZ0" version="13.4.9" type="github">
  <diagram id="ZuSm_9YUFJmoMPFaWgsC" name="Page-1">
    <mxGraphModel dx="738" dy="581" grid="1" gridSize="10" guides="1" tooltips="1" connect="1" arrows="1" fold="1" page="1" pageScale="1" pageWidth="850" pageHeight="1100" math="0" shadow="0">
      <root>
        <mxCell id="0" />
        <mxCell id="1" parent="0" />
        <mxCell id="FwMGES1zW2VIu61Q4Mag-10" value="Big Data Service" style="rounded=0;whiteSpace=wrap;html=1;" vertex="1" parent="1">
          <mxGeometry x="330" y="110" width="120" height="60" as="geometry" />
        </mxCell>
        <mxCell id="FwMGES1zW2VIu61Q4Mag-11" value="" style="group" vertex="1" connectable="0" parent="1">
          <mxGeometry x="580" y="190" width="145" height="60" as="geometry" />
        </mxCell>
        <mxCell id="FwMGES1zW2VIu61Q4Mag-2" value="" style="rounded=0;whiteSpace=wrap;html=1;" vertex="1" parent="FwMGES1zW2VIu61Q4Mag-11">
          <mxGeometry width="145" height="60" as="geometry" />
        </mxCell>
        <mxCell id="FwMGES1zW2VIu61Q4Mag-1" value="" style="aspect=fixed;pointerEvents=1;shadow=0;dashed=0;html=1;strokeColor=none;labelPosition=center;verticalLabelPosition=bottom;verticalAlign=top;align=center;fillColor=#00188D;shape=mxgraph.mscae.enterprise.android_phone" vertex="1" parent="FwMGES1zW2VIu61Q4Mag-11">
          <mxGeometry x="70" y="10" width="30" height="50" as="geometry" />
        </mxCell>
        <mxCell id="FwMGES1zW2VIu61Q4Mag-3" value="Asset 1" style="text;html=1;strokeColor=none;fillColor=none;align=center;verticalAlign=middle;whiteSpace=wrap;rounded=0;" vertex="1" parent="FwMGES1zW2VIu61Q4Mag-11">
          <mxGeometry x="10" y="10" width="50" height="20" as="geometry" />
        </mxCell>
        <mxCell id="FwMGES1zW2VIu61Q4Mag-8" value="" style="shape=image;html=1;verticalAlign=top;verticalLabelPosition=bottom;labelBackgroundColor=#ffffff;imageAspect=0;aspect=fixed;image=https://cdn1.iconfinder.com/data/icons/twitter-ui-glyph/48/Sed-20-128.png" vertex="1" parent="FwMGES1zW2VIu61Q4Mag-11">
          <mxGeometry x="117" width="28" height="28" as="geometry" />
        </mxCell>
        <mxCell id="FwMGES1zW2VIu61Q4Mag-12" value="" style="group" vertex="1" connectable="0" parent="1">
          <mxGeometry x="580" y="290" width="145" height="60" as="geometry" />
        </mxCell>
        <mxCell id="FwMGES1zW2VIu61Q4Mag-4" value="" style="rounded=0;whiteSpace=wrap;html=1;" vertex="1" parent="FwMGES1zW2VIu61Q4Mag-12">
          <mxGeometry width="145" height="60" as="geometry" />
        </mxCell>
        <mxCell id="FwMGES1zW2VIu61Q4Mag-5" value="" style="aspect=fixed;pointerEvents=1;shadow=0;dashed=0;html=1;strokeColor=none;labelPosition=center;verticalLabelPosition=bottom;verticalAlign=top;align=center;fillColor=#00188D;shape=mxgraph.mscae.enterprise.android_phone" vertex="1" parent="FwMGES1zW2VIu61Q4Mag-12">
          <mxGeometry x="70" y="10" width="30" height="50" as="geometry" />
        </mxCell>
        <mxCell id="FwMGES1zW2VIu61Q4Mag-6" value="Asset 2&lt;br&gt;" style="text;html=1;strokeColor=none;fillColor=none;align=center;verticalAlign=middle;whiteSpace=wrap;rounded=0;" vertex="1" parent="FwMGES1zW2VIu61Q4Mag-12">
          <mxGeometry x="10" y="10" width="50" height="20" as="geometry" />
        </mxCell>
        <mxCell id="FwMGES1zW2VIu61Q4Mag-9" value="" style="shape=image;html=1;verticalAlign=top;verticalLabelPosition=bottom;labelBackgroundColor=#ffffff;imageAspect=0;aspect=fixed;image=https://cdn1.iconfinder.com/data/icons/twitter-ui-glyph/48/Sed-20-128.png" vertex="1" parent="FwMGES1zW2VIu61Q4Mag-12">
          <mxGeometry x="117" width="28" height="28" as="geometry" />
        </mxCell>
        <mxCell id="FwMGES1zW2VIu61Q4Mag-15" style="edgeStyle=orthogonalEdgeStyle;rounded=0;orthogonalLoop=1;jettySize=auto;html=1;exitX=0;exitY=0.5;exitDx=0;exitDy=0;entryX=1;entryY=0.5;entryDx=0;entryDy=0;" edge="1" parent="1" source="FwMGES1zW2VIu61Q4Mag-2" target="FwMGES1zW2VIu61Q4Mag-10">
          <mxGeometry relative="1" as="geometry" />
        </mxCell>
        <mxCell id="FwMGES1zW2VIu61Q4Mag-16" style="edgeStyle=orthogonalEdgeStyle;rounded=0;orthogonalLoop=1;jettySize=auto;html=1;exitX=0;exitY=0.5;exitDx=0;exitDy=0;entryX=0.5;entryY=1;entryDx=0;entryDy=0;" edge="1" parent="1" source="FwMGES1zW2VIu61Q4Mag-4" target="FwMGES1zW2VIu61Q4Mag-10">
          <mxGeometry relative="1" as="geometry" />
        </mxCell>
        <mxCell id="FwMGES1zW2VIu61Q4Mag-19" value="" style="shape=flexArrow;endArrow=classic;startArrow=classic;html=1;entryX=0;entryY=0.5;entryDx=0;entryDy=0;" edge="1" parent="1" target="FwMGES1zW2VIu61Q4Mag-10">
          <mxGeometry width="50" height="50" relative="1" as="geometry">
            <mxPoint x="140" y="140" as="sourcePoint" />
            <mxPoint x="400" y="250" as="targetPoint" />
            <Array as="points" />
          </mxGeometry>
        </mxCell>
        <mxCell id="FwMGES1zW2VIu61Q4Mag-21" value="Data Pipeline&amp;nbsp;&lt;br&gt;" style="text;html=1;strokeColor=none;fillColor=none;align=center;verticalAlign=middle;whiteSpace=wrap;rounded=0;" vertex="1" parent="1">
          <mxGeometry x="190" y="110" width="100" height="20" as="geometry" />
        </mxCell>
      </root>
    </mxGraphModel>
  </diagram>
</mxfile>
